<svg xmlns="http://www.w3.org/2000/svg" viewBox="0 0 100 100"><path fill="#b3b2c3" d="M78.05,20H21.95C18.112,20,15,23.134,15,27v46h70V27C85,23.134,81.888,20,78.05,20z"/><path fill="#fefdef" d="M79.967,69H20.033C19.462,69,19,68.538,19,67.967V28.033C19,27.462,19.462,27,20.033,27h59.934C80.538,27,81,27.462,81,28.033v39.934C81,68.538,80.538,69,79.967,69z"/><path fill="#6474a6" d="M63.99,52.51h7.21c-0.56,1.05-1.31,1.98-2.24,2.78c-3.43,2.9-8.66,2.95-12.15,0.1c-1.32-1.07-2.3-2.31-2.85-3.59l-0.13-0.3H32c-1.9,0-3.5-1.6-3.5-3.49c0-1.9,1.6-3.51,3.5-3.51h21.83l0.13-0.3c0.55-1.29,1.51-2.49,2.85-3.58c3.49-2.86,8.71-2.81,12.15,0.1c0.94,0.79,1.69,1.73,2.26,2.79h-7.23c-1.37,0.02-2.49,1.16-2.49,2.53v3.94C61.5,51.35,62.62,52.48,63.99,52.51z"/><path fill="#8f9eb6" d="M90,73H10v2c0,2.761,2.239,5,5,5h70c2.761,0,5-2.239,5-5V73z"/><path fill="#1f212b" d="M90,72h-4V27c0-4.411-3.589-8-8-8H22c-4.411,0-8,3.589-8,8v45h-4c-0.552,0-1,0.448-1,1v2c0,3.309,2.691,6,6,6h70c3.309,0,6-2.691,6-6v-2C91,72.448,90.552,72,90,72z M16,27c0-3.309,2.691-6,6-6h56c3.309,0,6,2.691,6,6v45H16V27z M89,75c0,2.206-1.794,4-4,4H15c-2.206,0-4-1.794-4-4v-1h4h70h4V75z"/><path fill="#1f212b" d="M80.5,27h-61c-0.276,0-0.5,0.224-0.5,0.5v31c0,0.276,0.224,0.5,0.5,0.5s0.5-0.224,0.5-0.5V28h60v40H20v-1.5c0-0.276-0.224-0.5-0.5-0.5S19,66.224,19,66.5v2c0,0.276,0.224,0.5,0.5,0.5h61c0.276,0,0.5-0.224,0.5-0.5v-41C81,27.224,80.776,27,80.5,27z"/><path fill="#1f212b" d="M19.5 64c.276 0 .5-.224.5-.5v-2c0-.276-.224-.5-.5-.5S19 61.224 19 61.5v2C19 63.776 19.224 64 19.5 64zM53.5 76h-7c-.276 0-.5.224-.5.5s.224.5.5.5h7c.276 0 .5-.224.5-.5S53.776 76 53.5 76zM63.99 44.01h7.229c.176 0 .339-.092.429-.244.09-.151.095-.338.011-.493-.61-1.134-1.41-2.122-2.377-2.935-3.624-3.065-9.123-3.11-12.788-.105-1.408 1.145-2.416 2.413-2.993 3.768H32c-2.168 0-4 1.836-4 4.01 0 2.163 1.832 3.99 4 3.99h21.502c.583 1.357 1.618 2.664 2.992 3.777 1.813 1.481 4.071 2.22 6.329 2.219 2.315 0 4.63-.777 6.464-2.328.976-.839 1.768-1.822 2.355-2.924.083-.155.078-.342-.013-.493-.09-.15-.253-.243-.429-.243h-7.204C62.895 51.983 62 51.074 62 49.98v-3.94C62 44.937 62.896 44.026 63.99 44.01zM63.979 53.01c.003 0 .007 0 .011 0h6.33c-.464.699-1.028 1.335-1.683 1.898-3.257 2.754-8.206 2.794-11.512.094-1.25-1.014-2.186-2.19-2.706-3.401l-.13-.3C54.209 51.118 54.029 51 53.83 51H32c-1.626 0-3-1.369-3-2.99 0-1.631 1.374-3.01 3-3.01h21.83c.199 0 .379-.118.459-.301l.131-.303c.514-1.207 1.424-2.346 2.707-3.389 3.3-2.705 8.248-2.664 11.511.096.655.55 1.224 1.189 1.7 1.907h-6.355C62.338 43.034 61 44.393 61 46.04v3.94C61 51.615 62.336 52.974 63.979 53.01z"/><path fill="#1f212b" d="M52.5 47h-2c-.276 0-.5.224-.5.5s.224.5.5.5h2c.276 0 .5-.224.5-.5S52.776 47 52.5 47zM47.5 47h-14c-.276 0-.5.224-.5.5s.224.5.5.5h14c.276 0 .5-.224.5-.5S47.776 47 47.5 47z"/></svg>