<svg xmlns="http://www.w3.org/2000/svg" viewBox="0 0 100 100"><path fill="#ceccbe" d="M26.5 75H73.5V79H26.5z" transform="rotate(-180 50 77)"/><path fill="#ceccbe" d="M73 67H78V85H73zM22 67H27V85H22z"/><path fill="#fefdef" d="M85,43v21c0,1.657-1.343,3-3,3H18c-1.657,0-3-1.343-3-3V43c0-1.657,1.343-3,3-3h64 C83.657,40,85,41.343,85,43z"/><path fill="#f9e65c" d="M49.106 67.5L64.056 40.5 51.5 40.5 36.5 67.5zM85 43.5v5.1L74.78 67H62.167l14.792-26.5H82C83.657 40.5 85 41.843 85 43.5zM37.5 40.5L22.78 67H18c-1.657 0-3-1.343-3-3v-5.667L24.917 40.5H37.5z"/><path fill="#f15b6c" d="M50 12A14 14 0 1 0 50 40A14 14 0 1 0 50 12Z"/><path fill="#fff" d="M56,24.5H44c-0.828,0-1.5,0.672-1.5,1.5s0.672,1.5,1.5,1.5h12c0.828,0,1.5-0.672,1.5-1.5 S56.828,24.5,56,24.5z"/><path fill="#1f212b" d="M15.5 59c-.082 0-.166-.02-.242-.063-.242-.134-.329-.438-.194-.68l7.779-14.002c.134-.241.439-.33.68-.194.242.134.329.438.194.68l-7.779 14.002C15.846 58.907 15.675 59 15.5 59zM22.65 67.743c-.082 0-.166-.02-.242-.063-.242-.134-.329-.438-.194-.68l14.849-26.743c.134-.241.438-.329.68-.194.242.134.329.438.194.68L23.088 67.485C22.997 67.65 22.826 67.743 22.65 67.743zM62.759 67.52c-.082 0-.166-.02-.242-.063-.242-.134-.329-.438-.194-.68l6.398-11.504c.134-.241.439-.329.68-.194.242.134.329.438.194.68l-6.398 11.504C63.105 67.427 62.935 67.52 62.759 67.52zM70.277 54c-.082 0-.166-.02-.242-.063-.242-.134-.329-.438-.194-.68l1.121-2.018c.134-.242.438-.329.68-.194.242.134.329.438.194.68l-1.121 2.018C70.624 53.907 70.453 54 70.277 54zM73.043 49.021c-.082 0-.166-.02-.242-.063-.242-.134-.329-.438-.194-.68l.569-1.024c.134-.242.439-.33.68-.194.242.134.329.438.194.68l-.569 1.024C73.39 48.929 73.219 49.021 73.043 49.021zM74.73 45.984c-.082 0-.166-.02-.242-.063-.242-.134-.329-.438-.194-.68l2.769-4.984c.134-.241.439-.329.68-.194.242.134.329.438.194.68l-2.769 4.984C75.077 45.892 74.906 45.984 74.73 45.984zM74.5 68c-.082 0-.166-.02-.242-.063-.242-.134-.329-.438-.194-.68l10-18c.133-.241.438-.33.68-.194.242.134.329.438.194.68l-10 18C74.846 67.907 74.675 68 74.5 68zM36.701 67.649c-.082 0-.166-.02-.242-.063-.242-.134-.329-.438-.194-.68l14.798-26.649c.133-.241.438-.329.68-.194.242.134.329.438.194.68L37.139 67.392C37.048 67.557 36.877 67.649 36.701 67.649zM48.696 67.649c-.082 0-.166-.02-.242-.063-.242-.134-.329-.438-.194-.68l4.259-7.669c.134-.241.439-.329.68-.194.242.134.329.438.194.68l-4.259 7.669C49.042 67.557 48.872 67.649 48.696 67.649zM55.727 54.99c-.082 0-.166-.02-.242-.063-.242-.134-.329-.438-.194-.68l7.772-13.99c.134-.241.439-.329.68-.194.242.134.329.438.194.68l-7.772 13.99C56.073 54.897 55.903 54.99 55.727 54.99zM56 28H44c-1.103 0-2-.897-2-2s.897-2 2-2h12c1.103 0 2 .897 2 2S57.103 28 56 28zM44 25c-.551 0-1 .449-1 1s.449 1 1 1h12c.551 0 1-.449 1-1s-.449-1-1-1H44zM61.5 78h-11c-.276 0-.5.224-.5.5s.224.5.5.5h11c.276 0 .5-.224.5-.5S61.776 78 61.5 78zM66.5 78h-2c-.276 0-.5.224-.5.5s.224.5.5.5h2c.276 0 .5-.224.5-.5S66.776 78 66.5 78z"/><path fill="#1f212b" d="M82,39H57.451C61.954,36.409,65,31.558,65,26c0-8.271-6.729-15-15-15s-15,6.729-15,15 c0,5.558,3.046,10.409,7.549,13H18c-2.206,0-4,1.794-4,4v21c0,2.206,1.794,4,4,4h3v17c0,0.552,0.448,1,1,1h5c0.552,0,1-0.448,1-1 v-6h19.5c0.276,0,0.5-0.224,0.5-0.5S47.776,78,47.5,78H28v-3h44v3h-3.5c-0.276,0-0.5,0.224-0.5,0.5s0.224,0.5,0.5,0.5H72v6 c0,0.552,0.448,1,1,1h5c0.552,0,1-0.448,1-1V68h3c2.206,0,4-1.794,4-4V43C86,40.794,84.206,39,82,39z M37,26 c0-7.168,5.832-13,13-13s13,5.832,13,13s-5.832,13-13,13S37,33.168,37,26z M26,84h-3V68h3V84z M72,74H28v-6h44V74z M77,84h-3V68h3 V84z M84,64c0,1.103-0.897,2-2,2h-4h-5H27h-5h-4c-1.103,0-2-0.897-2-2V43c0-1.103,0.897-2,2-2h64c1.103,0,2,0.897,2,2V64z"/></svg>